<?xml version="1.0" encoding="UTF-8" standalone="no"?>
<!-- Created with Inkscape (http://www.inkscape.org/) -->

<svg
   width="256"
   height="256"
   viewBox="0 0 256 256"
   version="1.1"
   id="svg5"
   inkscape:version="1.1 (c68e22c387, 2021-05-23)"
   sodipodi:docname="BlackHole.svg"
   xmlns:inkscape="http://www.inkscape.org/namespaces/inkscape"
   xmlns:sodipodi="http://sodipodi.sourceforge.net/DTD/sodipodi-0.dtd"
   xmlns="http://www.w3.org/2000/svg"
   xmlns:svg="http://www.w3.org/2000/svg">
  <sodipodi:namedview
     id="namedview7"
     pagecolor="#505050"
     bordercolor="#eeeeee"
     borderopacity="1"
     inkscape:pageshadow="0"
     inkscape:pageopacity="0"
     inkscape:pagecheckerboard="0"
     inkscape:document-units="px"
     showgrid="false"
     units="px"
     inkscape:zoom="2.0460067"
     inkscape:cx="77.223598"
     inkscape:cy="155.66909"
     inkscape:window-width="1920"
     inkscape:window-height="1001"
     inkscape:window-x="-9"
     inkscape:window-y="-9"
     inkscape:window-maximized="1"
     inkscape:current-layer="layer1" />
  <defs
     id="defs2">
    <inkscape:path-effect
       effect="powerstroke"
       id="path-effect22610"
       is_visible="true"
       lpeversion="1"
       offset_points="0.2,1.1482225 | 2.6163729,5.4131375 | 4.78743,1.3927297"
       not_jump="false"
       sort_points="true"
       interpolator_type="CentripetalCatmullRom"
       interpolator_beta="0.2"
       start_linecap_type="zerowidth"
       linejoin_type="round"
       miter_limit="4"
       scale_width="1"
       end_linecap_type="zerowidth" />
    <inkscape:path-effect
       effect="powerstroke"
       id="path-effect22237"
       is_visible="true"
       lpeversion="1"
       offset_points="0.2,1.1482225 | 2.6163729,5.4131375 | 4.8,1.1482225"
       not_jump="false"
       sort_points="true"
       interpolator_type="CentripetalCatmullRom"
       interpolator_beta="0.2"
       start_linecap_type="zerowidth"
       linejoin_type="round"
       miter_limit="4"
       scale_width="1"
       end_linecap_type="zerowidth" />
    <inkscape:path-effect
       effect="powerstroke"
       id="path-effect21946"
       is_visible="true"
       lpeversion="1"
       offset_points="0.2,0.65411917 | 3.9329422,3.0601686 | 7.8,0.65411917"
       not_jump="false"
       sort_points="true"
       interpolator_type="CentripetalCatmullRom"
       interpolator_beta="0.2"
       start_linecap_type="zerowidth"
       linejoin_type="round"
       miter_limit="4"
       scale_width="1"
       end_linecap_type="zerowidth" />
    <inkscape:path-effect
       effect="powerstroke"
       id="path-effect17968"
       is_visible="true"
       lpeversion="1"
       offset_points="0.2,0.65411917 | 3.9910256,3.1209932 | 7.8,0.65411917"
       not_jump="false"
       sort_points="true"
       interpolator_type="CentripetalCatmullRom"
       interpolator_beta="0.2"
       start_linecap_type="zerowidth"
       linejoin_type="round"
       miter_limit="4"
       scale_width="1"
       end_linecap_type="zerowidth" />
    <inkscape:path-effect
       effect="powerstroke"
       id="path-effect16703"
       is_visible="true"
       lpeversion="1"
       offset_points="0.2,0.65411917 | 3.9329422,3.0601686 | 7.8,0.65411917"
       not_jump="false"
       sort_points="true"
       interpolator_type="CentripetalCatmullRom"
       interpolator_beta="0.2"
       start_linecap_type="zerowidth"
       linejoin_type="round"
       miter_limit="4"
       scale_width="1"
       end_linecap_type="zerowidth" />
  </defs>
  <g
     inkscape:label="Layer 1"
     inkscape:groupmode="layer"
     id="layer1">
    <ellipse
       style="fill:#69107e;fill-opacity:1;stroke:none;stroke-width:7.08182;stroke-linecap:round;stroke-linejoin:round;stroke-miterlimit:4;stroke-dasharray:none;stroke-dashoffset:566.929"
       id="circle1468"
       cx="72.244736"
       cy="72.018547"
       rx="63.461269"
       ry="63.4622" />
    <ellipse
       style="fill:#3b015d;fill-opacity:1;stroke:none;stroke-width:5.69625;stroke-linecap:round;stroke-linejoin:round;stroke-miterlimit:4;stroke-dasharray:none;stroke-dashoffset:566.929"
       id="circle3396"
       cx="72.639778"
       cy="70.835953"
       rx="51.24271"
       ry="50.848537" />
    <circle
       style="fill:#680cc6;fill-opacity:1;stroke:none;stroke-width:4.31071;stroke-linecap:round;stroke-linejoin:round;stroke-miterlimit:4;stroke-dasharray:none;stroke-dashoffset:566.929"
       id="path1350"
       cx="72.639778"
       cy="71.23011"
       r="38.629124" />
    <g
       id="g25669"
       transform="matrix(1.1385664,-0.06707983,0.06707983,1.1385664,126.24929,126.05042)">
      <path
         id="path22211"
         style="fill:#d954fb;fill-opacity:1;fill-rule:nonzero;stroke:none;stroke-width:2.29645"
         d="m 63.22564,64.415511 c -0.191774,0.522344 -0.674246,1.313048 -1.361952,1.800784 -0.211317,0.14987 -0.42707,0.261544 -0.652197,0.342602 -0.03997,0.01439 -0.08007,0.02777 -0.12037,0.04021 -0.144043,0.04449 -0.298428,0.07579 -0.468169,0.09131 -0.327327,0.02993 -0.738825,0.0028 -1.249588,-0.122847 -0.422513,-0.103943 -0.926295,-0.279217 -1.497815,-0.555074 -0.967852,-0.467156 -2.102103,-1.216243 -3.066695,-2.17071 -0.424312,-0.419858 -0.789801,-0.856285 -1.049032,-1.266633 -0.245787,-0.38907 -0.3769,-0.731604 -0.356157,-0.904926 -0.448604,-1.036933 -0.685397,-2.030469 -0.758557,-2.974962 -0.07097,-0.916225 0.0101,-1.81078 0.221046,-2.682972 0.410271,-1.696319 1.336847,-3.398084 2.726505,-4.992333 1.371643,-1.57358 3.139847,-2.976147 5.109466,-4.064564 1.987322,-1.098198 4.055011,-1.808038 5.957345,-2.097909 3.817057,-0.681864 7.35448,-0.341514 10.517337,0.6365 3.380258,1.045239 6.399307,2.838548 8.958665,5.02471 1.275903,1.089856 2.432921,2.273008 3.468187,3.508022 1.19237,1.422429 2.29101,2.99466 3.249179,4.696802 1.698583,3.017453 2.925803,6.393022 3.435179,9.907363 0.695593,5.11084 0.139364,10.079647 -1.517567,14.760409 -1.636385,4.622722 -4.33926,8.935992 -7.894312,12.712653 -3.592447,3.816386 -7.977729,7.001704 -12.818713,9.364004 -5.0291,2.45409 -10.438639,3.96801 -15.878443,4.47138 -13.566771,1.62534 -24.507597,-2.56866 -29.918739,-5.03826 -3.388184,-1.54635 -6.247655,-2.95669 -7.149407,-3.48017 0.794491,0.83947 2.718096,3.12378 5.995936,5.4659 4.85493,3.46901 16.046736,9.95656 31.467659,9.89789 6.306605,-0.1753 12.692163,-1.535 18.743904,-4.0613 5.817047,-2.42833 11.262056,-5.91148 15.872694,-10.32398 4.562966,-4.36688 8.274831,-9.614651 10.666411,-15.537189 2.43516,-6.030467 3.44221,-12.617005 2.71276,-19.457899 -0.504,-4.978715 -2.06464,-9.695099 -4.29319,-13.844579 -1.26061,-2.347186 -2.734509,-4.514016 -4.361255,-6.469685 -1.412756,-1.698412 -3.016509,-3.328709 -4.811368,-4.830054 -3.595247,-3.007315 -7.980954,-5.511876 -13.01164,-6.889264 -4.7497,-1.300455 -9.990824,-1.568334 -15.452006,-0.34369 -3.13566,0.743022 -6.197371,2.141885 -8.916726,3.994736 -2.705247,1.843239 -5.125228,4.172342 -6.959117,6.837326 -1.870115,2.717631 -3.138692,5.798776 -3.450233,9.048562 -0.159951,1.668504 -0.0634,3.343263 0.306614,4.99265 0.3807,1.697002 1.040601,3.32224 1.957366,4.859072 0.526482,0.799726 1.198113,1.474011 1.8536,2.01822 0.702027,0.582847 1.474132,1.089902 2.242456,1.512279 1.73122,0.951719 3.549878,1.53951 5.154507,1.744046 0.957873,0.122097 1.840201,0.109716 2.628414,-0.02442 0.973686,-0.165702 1.753189,-0.508205 2.351403,-0.946804 0.298036,-0.218514 0.539989,-0.452668 0.735172,-0.685343 0.05462,-0.06512 0.106002,-0.131084 0.154276,-0.19765 0.270083,-0.372425 0.440153,-0.759299 0.543829,-1.124042 0.312086,-1.097947 0.05423,-2.184604 -0.01666,-2.640173 z"
         inkscape:path-effect="#path-effect22237"
         inkscape:original-d="M 63.22564,64.415511 C 62.496286,71.777806 52.537792,67.07401 50.491155,63.214814 44.94489,52.75663 55.484764,42.029783 65.650104,39.942272 83.833513,36.208204 99.459896,51.510116 101.42911,68.0176 c 2.88985,24.225393 -18.927127,43.95069 -43.0524,45.34441 -13.456077,0.77735 -26.878363,-3.72097 -37.265874,-11.94111" />
      <path
         id="path22606"
         style="fill:#af54fb;fill-opacity:1;fill-rule:nonzero;stroke:none;stroke-width:2.29645"
         d="m 63.22564,64.415511 c -0.08733,-0.549536 -0.05177,-1.475133 0.310722,-2.236334 0.111385,-0.233899 0.245273,-0.436617 0.402276,-0.617179 0.02788,-0.03206 0.05636,-0.06329 0.08547,-0.09381 0.104036,-0.109083 0.223481,-0.211736 0.363995,-0.308173 0.270886,-0.185912 0.643072,-0.363456 1.15009,-0.503599 0.419423,-0.115932 0.944632,-0.209378 1.578243,-0.248141 1.073042,-0.06565 2.428946,0.0335 3.737765,0.394793 0.575741,0.158932 1.108308,0.361062 1.535701,0.592399 0.405357,0.219409 0.687805,0.4541 0.756037,0.615877 0.89875,0.686622 1.591538,1.438987 2.117465,2.228717 0.510215,0.766137 0.876973,1.587748 1.119195,2.453386 0.471143,1.683747 0.493047,3.624144 0.05755,5.696143 -0.429886,2.045307 -1.290143,4.134356 -2.47977,6.046729 -1.200524,1.92989 -2.66121,3.559463 -4.182657,4.740975 -3.018147,2.471486 -6.294932,3.93482 -9.554186,4.662764 -3.482332,0.777766 -7.001747,0.729981 -10.297462,0.116255 -1.644005,-0.306147 -3.226984,-0.75179 -4.726859,-1.302706 -1.728979,-0.635068 -3.445478,-1.446775 -5.099506,-2.441161 -2.935812,-1.764982 -5.628955,-4.079482 -7.763422,-6.885045 -3.089376,-4.126211 -5.010396,-8.732793 -5.831767,-13.614685 -0.812063,-4.826571 -0.542167,-9.89653 0.727974,-14.90721 1.284746,-5.06829 3.565723,-9.966626 6.63826,-14.365757 3.195015,-4.574492 7.173362,-8.509206 11.660761,-11.577832 5.657965,-4.089678 11.66449,-6.340547 16.938849,-7.612556 4.393435,-1.059558 8.300258,-1.442213 10.953981,-1.640698 3.817131,-0.285502 7.442601,-0.569237 8.458428,-0.572719 -1.175163,-0.39384 -4.140817,-1.636391 -8.367818,-2.211266 -2.745636,-0.373408 -6.900641,-0.682754 -11.797753,-0.242709 -5.828563,0.523745 -12.974365,2.134739 -20.075114,6.174014 -5.431227,3.249562 -10.349951,7.57455 -14.40312,12.757088 -3.892347,4.976907 -6.942672,10.69397 -8.807277,16.81513 -1.843676,6.052461 -2.513028,12.458351 -1.697704,18.807317 0.829318,6.457928 3.176188,12.703142 7.163939,18.321201 2.887874,4.108556 6.573932,7.437278 10.567666,9.928468 2.255209,1.406741 4.608207,2.547215 6.990488,3.42702 2.066778,0.763285 4.266443,1.370758 6.567823,1.770836 4.608806,0.801207 9.64829,0.771161 14.693299,-0.534088 4.75869,-1.231172 9.441776,-3.58078 13.595169,-7.29991 2.372547,-2.17693 4.361568,-4.889853 5.830973,-7.83224 1.461518,-2.926595 2.437738,-6.137963 2.739118,-9.356687 0.307291,-3.281872 -0.08701,-6.587549 -1.398099,-9.574087 -0.673094,-1.533246 -1.572939,-2.9471 -2.699024,-4.205721 -1.158551,-1.294908 -2.525806,-2.391423 -4.07432,-3.285817 -0.848055,-0.441089 -1.761884,-0.702463 -2.598752,-0.858304 -0.896218,-0.166894 -1.816825,-0.233622 -2.693095,-0.22829 -1.974402,0.01201 -3.84819,0.384171 -5.348651,0.986808 -0.895682,0.359737 -1.659959,0.800117 -2.282773,1.301024 -0.769431,0.618825 -1.283202,1.297564 -1.59173,1.971976 -0.153737,0.336055 -0.250828,0.658447 -0.307738,0.956737 -0.01593,0.08349 -0.02861,0.166135 -0.03829,0.247791 -0.05415,0.456852 -0.01393,0.877541 0.07345,1.246526 0.263033,1.110723 1.018124,1.933618 1.302199,2.296753 z"
         inkscape:path-effect="#path-effect22610"
         inkscape:original-d="m 63.22564,64.415511 c -2.95397,-6.783023 8.03393,-7.533506 11.70284,-5.162596 9.94252,6.425025 5.97283,20.93005 -1.88343,27.71025 -14.053,12.12818 -35.157849,6.879547 -44.927938,-6.571103 C 13.779167,60.65265 23.205117,32.791938 43.5868,19.808949 54.95487,12.567583 68.805365,10.925886 81.882775,13.035941"
         sodipodi:nodetypes="cssccc" />
    </g>
    <ellipse
       style="fill:#000000;fill-opacity:1;stroke:none;stroke-width:3.00845;stroke-linecap:round;stroke-linejoin:round;stroke-miterlimit:4;stroke-dasharray:none;stroke-dashoffset:566.929"
       id="circle8592"
       cx="52.552914"
       cy="205.05566"
       rx="26.959047"
       ry="26.959679" />
  </g>
</svg>
